<svg width="22" height="26" viewBox="0 0 22 26" fill="inherit" xmlns="http://www.w3.org/2000/svg">
<path d="M20.875 25.375C20.6787 25.375 20.485 25.3125 20.3225 25.195L11 18.41L1.6775 25.1975C1.3925 25.4025 1.015 25.435 0.7 25.2725C0.3875 25.1137 0.1875 24.7912 0.1875 24.4387V3C0.1875 1.45 1.45 0.1875 3 0.1875H18.9975C20.5475 0.1875 21.81 1.45 21.81 3V24.4375C21.81 24.79 21.6125 25.1125 21.2975 25.2725C21.165 25.3412 21.0188 25.375 20.8725 25.375H20.875ZM11 16.3125C11.1937 16.3125 11.3875 16.3725 11.55 16.4925L19.9375 22.5963V3C19.9375 2.485 19.5162 2.0625 19 2.0625H3C2.48375 2.0625 2.0625 2.485 2.0625 3V22.5963L10.45 16.4925C10.6125 16.3725 10.8062 16.3125 11 16.3125Z" fill="inherit"/>
</svg>
