<svg width="24" height="24" viewBox="0 0 24 24" fill="inherit" xmlns="http://www.w3.org/2000/svg">
<path d="M 10.25 3.75 c -3.59 0 -6.5 2.91 -6.5 6.5 s 2.91 6.5 6.5 6.5 c 1.795 0 3.419 -0.726 4.596 -1.904 c 1.178 -1.177 1.904 -2.801 1.904 -4.596 c 0 -3.59 -2.91 -6.5 -6.5 -6.5 Z m -8.5 6.5 c 0 -4.694 3.806 -8.5 8.5 -8.5 s 8.5 3.806 8.5 8.5 c 0 1.986 -0.682 3.815 -1.824 5.262 l 4.781 4.781 l -1.414 1.414 l -4.781 -4.781 c -1.447 1.142 -3.276 1.824 -5.262 1.824 c -4.694 0 -8.5 -3.806 -8.5 -8.5 Z" fill="inherit"/>
</svg>
