<svg width="28" height="26" viewBox="0 0 28 26" fill="inherit" xmlns="http://www.w3.org/2000/svg">
<path d="M27.225 7.1875L14.5938 0.371252C14.2225 0.171252 13.7763 0.171252 13.4063 0.371252L0.781258 7.1875C0.173758 7.5175 -0.0524924 8.275 0.275008 8.8825C0.500008 9.30125 0.931258 9.53875 1.37501 9.53875C1.57501 9.53875 1.78001 9.49125 1.96876 9.38875L2.88626 8.89375L4.87376 22.9563C5.14376 24.4738 6.51126 25.5338 8.19876 25.5338H19.8013C21.4888 25.5338 22.8563 24.4738 23.1288 22.9238L25.1138 8.8925L26.035 9.39C26.6413 9.71875 27.4 9.4925 27.7275 8.885C28.0563 8.2775 27.8275 7.51875 27.2225 7.19125L27.225 7.1875ZM14 17.2938C11.7563 17.2938 9.93751 15.475 9.93751 13.2313C9.93751 10.9875 11.7563 9.16875 14 9.16875C16.2438 9.16875 18.0625 10.9875 18.0625 13.2313C18.0625 15.475 16.2438 17.2938 14 17.2938Z" fill="inherit"/>
</svg>
