<svg width="26" height="26" viewBox="0 0 26 26" fill="inherit" xmlns="http://www.w3.org/2000/svg">
<path d="M22.6875 25.5H3.3125C1.7625 25.5 0.5 24.2375 0.5 22.6875V3.3125C0.5 1.7625 1.7625 0.5 3.3125 0.5H22.6875C24.2375 0.5 25.5 1.7625 25.5 3.3125V22.6875C25.5 24.2375 24.2375 25.5 22.6875 25.5ZM3.3125 2.375C2.795 2.375 2.375 2.79625 2.375 3.3125V22.6875C2.375 23.2038 2.795 23.625 3.3125 23.625H22.6875C23.205 23.625 23.625 23.2038 23.625 22.6875V3.3125C23.625 2.79625 23.205 2.375 22.6875 2.375H3.3125Z" fill="inherit"/>
<path d="M19.25 8.79999H6.75C6.2325 8.79999 5.8125 8.37874 5.8125 7.86249C5.8125 7.34624 6.2325 6.92499 6.75 6.92499H19.25C19.7675 6.92499 20.1875 7.34374 20.1875 7.86249C20.1875 8.38124 19.7675 8.79999 19.25 8.79999ZM19.25 13.9375H6.75C6.2325 13.9375 5.8125 13.5175 5.8125 13C5.8125 12.4825 6.2325 12.0625 6.75 12.0625H19.25C19.7675 12.0625 20.1875 12.4825 20.1875 13C20.1875 13.5175 19.7675 13.9375 19.25 13.9375ZM13 19.075H6.75C6.2325 19.075 5.8125 18.6562 5.8125 18.1375C5.8125 17.6187 6.2325 17.2 6.75 17.2H13C13.5175 17.2 13.9375 17.6212 13.9375 18.1375C13.9375 18.6537 13.5175 19.075 13 19.075Z" fill="inherit"/>
</svg>
