<svg width="26" height="24" viewBox="0 0 26 24" fill="inherit" xmlns="http://www.w3.org/2000/svg">
<path d="M22.0625 0.772491H3.9375C2.04125 0.772491 0.5 2.31499 0.5 4.21249V19.8312C0.5 21.7287 2.04125 23.2725 3.9375 23.2725H22.0625C23.9587 23.2725 25.5 21.7287 25.5 19.8312V4.21249C25.5 2.31499 23.9587 0.772491 22.0625 0.772491ZM3.9375 2.64749H22.0625C22.925 2.64749 23.625 3.34749 23.625 4.20999V5.10249L13.5625 11.8112C13.2212 12.0362 12.78 12.0387 12.4375 11.8087L2.375 5.10249V4.20999C2.375 3.34749 3.075 2.64749 3.9375 2.64749ZM22.0625 21.395H3.9375C3.075 21.395 2.375 20.695 2.375 19.8325V7.29999L11.425 13.3375C11.9037 13.6575 12.4525 13.8175 13 13.8175C13.55 13.8175 14.0963 13.6575 14.575 13.3387L23.625 7.30124V19.8287C23.625 20.6912 22.925 21.3912 22.0625 21.3912V21.395Z" fill="inherit"/>
</svg>
