<svg width="28" height="28" viewBox="0 0 28 28" fill="inherit" xmlns="http://www.w3.org/2000/svg">
<path d="M19.625 11.8125C18.4187 11.8125 17.4375 12.7962 17.4375 14C17.4375 15.2037 18.4175 16.1875 19.625 16.1875C20.83 16.1875 21.8125 15.205 21.8125 14C21.8125 12.795 20.83 11.8125 19.625 11.8125ZM19.625 14.9375C19.1075 14.9375 18.6875 14.5175 18.6875 14C18.6875 13.4837 19.1088 13.0625 19.625 13.0625C20.1412 13.0625 20.5625 13.4825 20.5625 14C20.5625 14.5162 20.1425 14.9375 19.625 14.9375ZM14 11.8125C12.7925 11.8125 11.8125 12.7962 11.8125 14C11.8125 15.2037 12.7937 16.1875 14 16.1875C15.2063 16.1875 16.1875 15.205 16.1875 14C16.1875 12.795 15.2075 11.8125 14 11.8125ZM14 14.9375C13.4825 14.9375 13.0625 14.5175 13.0625 14C13.0625 13.4837 13.4837 13.0625 14 13.0625C14.5162 13.0625 14.9375 13.4825 14.9375 14C14.9375 14.5162 14.5175 14.9375 14 14.9375ZM8.375 11.8125C7.16875 11.8125 6.1875 12.7962 6.1875 14C6.1875 15.2037 7.16875 16.1875 8.375 16.1875C9.58 16.1875 10.5625 15.205 10.5625 14C10.5625 12.795 9.57875 11.8125 8.375 11.8125ZM8.375 14.9375C7.8575 14.9375 7.4375 14.5175 7.4375 14C7.4375 13.4837 7.85875 13.0625 8.375 13.0625C8.89125 13.0625 9.3125 13.4825 9.3125 14C9.3125 14.5162 8.8925 14.9375 8.375 14.9375Z" fill="inherit"/>
<path d="M14 27.4375C6.59 27.4375 0.5625 21.41 0.5625 14C0.5625 6.59 6.59 0.5625 14 0.5625C21.41 0.5625 27.4375 6.59 27.4375 14C27.4375 21.41 21.41 27.4375 14 27.4375ZM14 2.4375C7.625 2.4375 2.4375 7.625 2.4375 14C2.4375 20.375 7.625 25.5625 14 25.5625C20.375 25.5625 25.5625 20.375 25.5625 14C25.5625 7.625 20.375 2.4375 14 2.4375Z" fill="inherit"/>
</svg>
