<svg width="22" height="26" viewBox="0 0 22 26" fill="inherit" xmlns="http://www.w3.org/2000/svg">
<path d="M11 12.77C12.6938 12.77 14.59 12.5825 15.8 11.2C16.8175 10.0375 17.1475 8.24001 16.8075 5.71001C16.3325 2.17876 14.1613 0.0700073 11 0.0700073C7.83875 0.0700073 5.6675 2.17876 5.1925 5.71251C4.8525 8.24001 5.1825 10.0375 6.2 11.2C7.41 12.5838 9.30625 12.77 11 12.77ZM7.05 5.96001C7.2525 4.46001 8.03375 1.94501 11 1.94501C13.9663 1.94501 14.7475 4.46126 14.95 5.96001C15.2088 7.89751 15.0213 9.24376 14.3875 9.96626C13.8188 10.6163 12.805 10.895 11 10.895C9.195 10.895 8.18125 10.6163 7.6125 9.96626C6.97875 9.24376 6.79125 7.89626 7.05 5.96001ZM21.35 22.045C20.2538 17.6375 15.9975 14.5575 11 14.5575C6.0025 14.5575 1.74625 17.6375 0.650004 22.045C0.435004 22.91 0.615003 23.795 1.14375 24.47C1.65375 25.12 2.44375 25.495 3.31 25.495H18.69C19.5563 25.495 20.3463 25.12 20.8563 24.47C21.3863 23.795 21.565 22.9113 21.3488 22.045H21.35ZM19.38 23.315C19.2225 23.515 18.985 23.6225 18.69 23.6225H3.31C3.01625 23.6225 2.7775 23.5163 2.62 23.315C2.44875 23.0975 2.395 22.8 2.47 22.4975C3.3575 18.9288 6.86625 16.435 11 16.435C15.1338 16.435 18.6425 18.9275 19.53 22.4975C19.605 22.8 19.5513 23.0975 19.38 23.315Z" fill="inherit"/>
</svg>
