<svg width="18" height="14" viewBox="0 0 18 14" fill="inherit" xmlns="http://www.w3.org/2000/svg">
<path d="M17.8275 9.7525C17.6085 9.53275 17.2522 9.53275 17.0325 9.7525L15.3675 11.4175V3.7375C15.3675 2.1865 14.1052 0.924997 12.555 0.924997H8.16748C7.85698 0.924997 7.60498 1.177 7.60498 1.4875C7.60498 1.798 7.85698 2.05 8.16748 2.05H12.555C13.485 2.05 14.2425 2.8075 14.2425 3.7375V11.4175L12.5775 9.7525C12.3577 9.53275 12.0015 9.53275 11.7825 9.7525C11.5635 9.97225 11.562 10.3285 11.7825 10.5475L14.4075 13.1725C14.5162 13.2827 14.6602 13.3375 14.805 13.3375C14.9497 13.3375 15.0922 13.2835 15.2025 13.1725L17.8275 10.5475C18.048 10.3285 18.048 9.97225 17.8275 9.7525ZM9.83248 12.2125H5.44498C4.51498 12.2125 3.75748 11.455 3.75748 10.525V2.845L5.42248 4.51C5.53348 4.62025 5.67748 4.675 5.82148 4.675C5.96548 4.675 6.10948 4.62025 6.21898 4.51C6.43873 4.29025 6.43873 3.934 6.21898 3.715L3.59398 1.09C3.37423 0.869497 3.01798 0.869497 2.79898 1.09L0.173981 3.715C-0.0465191 3.934 -0.0465191 4.29025 0.173981 4.51C0.394481 4.72975 0.749231 4.72975 0.968981 4.51L2.63398 2.845V10.525C2.63398 12.076 3.89623 13.3375 5.44648 13.3375H9.83398C10.1445 13.3375 10.3965 13.0855 10.3965 12.775C10.3965 12.4645 10.1437 12.2125 9.83398 12.2125H9.83248Z" fill="inherit"/>
</svg>
